<svg width="14" height="14" viewBox="0 0 14 14" fill="none" xmlns="http://www.w3.org/2000/svg">
<path fill-rule="evenodd" clip-rule="evenodd" d="M7 2.5C4.51472 2.5 2.5 4.51472 2.5 7C2.5 7.45131 2.59578 7.92358 2.73943 8.37285L2.76867 8.46427C2.92677 8.95872 3.01199 9.22521 3.02433 9.26712C3.19078 9.8325 3.3002 10.3353 3.22681 10.8588C3.19548 11.0824 3.13314 11.2931 3.04742 11.5H7C9.48528 11.5 11.5 9.48528 11.5 7C11.5 4.51472 9.48528 2.5 7 2.5ZM1.13151 11.8257C1.04855 11.9463 1 12.0925 1 12.25C1 12.6642 1.33579 13 1.75 13H7C10.3137 13 13 10.3137 13 7C13 3.68629 10.3137 1 7 1C3.68629 1 1 3.68629 1 7C1 7.65283 1.13644 8.2847 1.3107 8.82969L1.51426 9.46664L1.56733 9.63338C1.57815 9.66755 1.58327 9.68395 1.58485 9.68902C1.58528 9.69042 1.58545 9.69095 1.58539 9.69075C1.74235 10.2239 1.76748 10.4641 1.74133 10.6506C1.71519 10.8371 1.62499 11.0611 1.3275 11.5306L1.3275 11.5306C1.32743 11.5307 1.32711 11.5312 1.32648 11.5322L1.32325 11.5372L1.31177 11.5547L1.27192 11.6149L1.13151 11.8257Z" fill="white"/>
</svg>
