<svg width="24" height="24" viewBox="0 0 24 24" fill="none" xmlns="http://www.w3.org/2000/svg">
<path fill-rule="evenodd" clip-rule="evenodd" d="M17.1593 4.90348C17.6361 4.47009 18.3642 4.4701 18.8409 4.9035C18.8596 4.9205 18.884 4.9446 18.9698 5.03034C19.0555 5.11608 19.0796 5.14048 19.0966 5.15918C19.53 5.63595 19.53 6.36401 19.0966 6.84076C19.0796 6.85946 19.0555 6.88387 18.9697 6.9696L18.1627 7.77667C17.0865 7.80093 16.1991 6.91357 16.2233 5.83744L17.0305 5.03031C17.1162 4.94458 17.1406 4.92048 17.1593 4.90348ZM14.9789 4.96059C14.9724 4.96683 14.966 4.97318 14.9598 4.97965L6.03657 13.9028L5.96302 13.9763C5.25466 14.6844 4.79718 15.1417 4.47843 15.7047C4.15967 16.2677 4.00291 16.8952 3.76019 17.8669L3.73498 17.9678L3.27241 19.8181C3.20851 20.0737 3.2834 20.344 3.46969 20.5303C3.65597 20.7166 3.92634 20.7915 4.18192 20.7276L6.03221 20.265L6.1331 20.2398C7.1048 19.9971 7.73236 19.8403 8.29534 19.5216C8.85831 19.2028 9.31561 18.7454 10.0237 18.037L10.0972 17.9635L19.0241 9.03653C19.028 9.03271 19.0319 9.02884 19.0357 9.02493L20.0304 8.03026L20.043 8.01764C20.1103 7.95035 20.1622 7.89852 20.2065 7.84973C21.16 6.80086 21.16 5.19913 20.2066 4.15024C20.1622 4.10146 20.1104 4.04964 20.0431 3.98237L20.043 3.9823L20.0305 3.96971L20.0179 3.95715L20.0179 3.95711C19.9506 3.88978 19.8987 3.83793 19.8499 3.79357C18.801 2.84009 17.1993 2.84007 16.1504 3.79352C16.1016 3.83788 16.0497 3.88974 15.9824 3.95707L15.9698 3.96965L14.9789 4.96059ZM16.8917 9.0476L9.03654 16.9028C8.22978 17.7096 7.92038 18.0101 7.55629 18.2163C7.1922 18.4224 6.77527 18.5331 5.6684 18.8098L5.03079 18.9692L5.19019 18.3316C5.46691 17.2248 5.57758 16.8078 5.78372 16.4437C5.98987 16.0796 6.29045 15.7702 7.09722 14.9635L14.9524 7.10833C15.2981 7.99366 16.0064 8.70196 16.8917 9.0476Z" fill="black"/>
</svg>
