<svg width="14" height="14" viewBox="0 0 14 14" fill="none" xmlns="http://www.w3.org/2000/svg">
<path fill-rule="evenodd" clip-rule="evenodd" d="M10.1554 3.15532C10.3457 2.96498 10.6544 2.96498 10.8447 3.15533C11.0351 3.34568 11.035 3.65429 10.8447 3.84463L10.4715 4.21787C10.1135 4.1727 9.82733 3.88653 9.78213 3.52859L10.1554 3.15532ZM8.51914 2.67026C8.51361 2.67562 8.50815 2.68108 8.50278 2.68662L3.95322 7.23613L3.87967 7.30966C3.17131 8.01774 2.71383 8.47503 2.39507 9.03801C2.07632 9.60099 1.91956 10.2286 1.67683 11.2003L1.65162 11.3012L1.60572 11.4848C1.54183 11.7403 1.61671 12.0107 1.803 12.197C1.98928 12.3833 2.25965 12.4582 2.51523 12.3943L2.69885 12.3484L2.79974 12.3232C3.77145 12.0804 4.39901 11.9237 4.96198 11.6049C5.52496 11.2862 5.98225 10.8287 6.69032 10.1204L6.69032 10.1204L6.76385 10.0468L11.3158 5.49481C11.3197 5.49102 11.3235 5.4872 11.3273 5.48333L11.9054 4.90529C12.6815 4.12917 12.6815 2.87083 11.9054 2.0947C11.1293 1.31854 9.87089 1.31852 9.09475 2.09466L8.51914 2.67026ZM9.33008 5.35925L5.70319 8.98614C4.89643 9.7929 4.58702 10.0935 4.22294 10.2996C4.00527 10.4229 3.76871 10.512 3.37714 10.6229C3.48801 10.2313 3.57713 9.99473 3.70037 9.77706C3.90652 9.41297 4.2071 9.10356 5.01387 8.2968L8.64076 4.66995C8.81887 4.94559 9.05443 5.18114 9.33008 5.35925Z" fill="white"/>
</svg>
