<svg width="14" height="14" viewBox="0 0 14 14" fill="none" xmlns="http://www.w3.org/2000/svg">
<path fill-rule="evenodd" clip-rule="evenodd" d="M10.9987 3.54012C10.2131 2.73665 8.92033 2.73665 8.13471 3.54012L7.5363 4.15213C7.39519 4.29644 7.20188 4.37779 7.00004 4.37779C6.79821 4.37779 6.6049 4.29644 6.46379 4.15213L5.86538 3.54012C5.07976 2.73665 3.78699 2.73665 3.00138 3.54012C2.24034 4.31845 2.24034 5.56213 3.00138 6.34047L7.00004 10.43L10.9987 6.34047C11.7597 5.56213 11.7597 4.31845 10.9987 3.54012ZM7.0622 2.49144C8.43621 1.08621 10.6972 1.08621 12.0712 2.49144C13.4022 3.85271 13.4022 6.02787 12.0712 7.38914L7.5363 12.0271C7.39519 12.1714 7.20188 12.2528 7.00004 12.2528C6.79821 12.2528 6.6049 12.1714 6.46379 12.0271L1.92887 7.38915C0.597849 6.02787 0.597846 3.85271 1.92887 2.49144C3.30287 1.08621 5.56388 1.08621 6.93789 2.49144L7.00004 2.55501L7.0622 2.49144Z" fill="white"/>
</svg>
