<svg width="24" height="24" viewBox="0 0 24 24" fill="none" xmlns="http://www.w3.org/2000/svg">
<path fill-rule="evenodd" clip-rule="evenodd" d="M19.238 5.69424C17.6811 4.10195 15.1191 4.10195 13.5622 5.69424L12.5363 6.74341C12.3952 6.88772 12.2019 6.96907 12.0001 6.96907C11.7983 6.96907 11.6049 6.88772 11.4638 6.74341L10.438 5.69424C8.88108 4.10195 6.3191 4.10195 4.76219 5.69424C3.25399 7.23672 3.25399 9.70142 4.76219 11.2439L12.0001 18.6463L19.238 11.2439C20.7462 9.70142 20.7462 7.23672 19.238 5.69424ZM12.4897 4.64556C14.635 2.45151 18.1652 2.45151 20.3105 4.64556C22.3887 6.77098 22.3887 10.1672 20.3105 12.2926L12.5363 20.2434C12.3952 20.3877 12.2019 20.4691 12.0001 20.4691C11.7983 20.4691 11.6049 20.3877 11.4638 20.2434L3.68968 12.2926C1.61149 10.1672 1.6115 6.77098 3.68968 4.64556C5.83498 2.45151 9.3652 2.45151 11.5105 4.64556L12.0001 5.14629L12.4897 4.64556Z" fill="white"/>
</svg>
