<svg width="14" height="14" viewBox="0 0 14 14" fill="none" xmlns="http://www.w3.org/2000/svg">
<path d="M7.01265 11.6665C6.62207 11.6696 6.23294 11.6188 5.8562 11.5157C5.77617 11.4924 5.70587 11.4437 5.65586 11.377C5.60584 11.3103 5.57882 11.2292 5.57883 11.1458L5.57763 6.91967C5.57044 6.30165 5.31657 5.77617 4.84454 5.39907C4.1956 4.88318 3.18514 4.69451 2.20897 4.90811C2.14134 4.92357 2.07078 4.9204 2.00481 4.89893C1.93884 4.87746 1.87993 4.83851 1.83434 4.78621C1.78876 4.73391 1.75822 4.67023 1.74596 4.60194C1.73371 4.53366 1.7402 4.46333 1.76475 4.39845C1.87623 4.0995 2.01838 3.74495 2.22839 3.382C2.42157 3.04222 2.66085 2.73081 2.93942 2.45664C2.99982 2.39887 3.0773 2.36221 3.16027 2.35214C3.24324 2.34207 3.32724 2.35914 3.3997 2.40079L6.96614 4.45982L7.06203 4.51567C7.60766 4.81821 8.1854 4.85968 8.74517 4.63889C9.51613 4.3354 10.1835 3.55484 10.4887 2.6024C10.5096 2.53636 10.5479 2.47717 10.5996 2.43106C10.6513 2.38496 10.7145 2.35365 10.7825 2.34042C10.8505 2.32719 10.9208 2.33255 10.986 2.35591C11.0512 2.37927 11.1089 2.41979 11.153 2.47319C11.3558 2.71867 11.5919 3.02001 11.8017 3.38296C11.9999 3.71948 12.1505 4.08189 12.249 4.45982C12.2689 4.5409 12.2619 4.62623 12.2292 4.70303C12.1965 4.77983 12.1398 4.84396 12.0676 4.88581L8.47883 6.95755L8.38126 7.0146C7.86057 7.33129 7.54029 7.8141 7.45495 8.40815C7.33748 9.22322 7.68029 10.1874 8.34914 10.9229C8.39607 10.9739 8.4283 11.0367 8.4424 11.1046C8.4565 11.1725 8.45194 11.2429 8.42921 11.3084C8.40714 11.3741 8.36749 11.4324 8.31457 11.4771C8.26166 11.5219 8.1975 11.5512 8.12907 11.562C7.80975 11.6119 7.43146 11.6665 7.01265 11.6665Z" stroke="#B3A8D0" stroke-width="1.5"/>
<path d="M1.91864 4.8125L5.56447 7.05469" stroke="#B3A8D0" stroke-width="1.5" stroke-linecap="round" stroke-linejoin="round"/>
<path d="M10.7051 2.35156L7.04108 4.44792" stroke="#B3A8D0" stroke-width="1.5" stroke-linecap="round" stroke-linejoin="round"/>
<path d="M8.4447 11.1016V7" stroke="#B3A8D0" stroke-width="1.5" stroke-linecap="round" stroke-linejoin="round"/>
</svg>
