<svg width="24" height="24" viewBox="0 0 24 24" fill="none" xmlns="http://www.w3.org/2000/svg">
<path fill-rule="evenodd" clip-rule="evenodd" d="M12 4.75C7.99594 4.75 4.75 7.99594 4.75 12C4.75 12.7405 4.9066 13.5019 5.13352 14.2116L5.13773 14.2248C5.38417 14.9955 5.57438 15.5904 5.70445 16.043C5.83002 16.4799 5.92254 16.8581 5.93452 17.1639C5.94396 17.405 5.94662 17.6136 5.91583 17.8332C5.88505 18.0528 5.82514 18.2527 5.74978 18.4819C5.67196 18.7186 5.54775 18.9664 5.37965 19.25H12C16.0041 19.25 19.25 16.0041 19.25 12C19.25 7.99594 16.0041 4.75 12 4.75ZM3.38164 19.5755C3.2986 19.6962 3.25 19.8424 3.25 20C3.25 20.4142 3.58579 20.75 4 20.75H12C16.8325 20.75 20.75 16.8325 20.75 12C20.75 7.16751 16.8325 3.25 12 3.25C7.16751 3.25 3.25 7.16751 3.25 12C3.25 12.942 3.44725 13.8631 3.70478 14.6685C3.95628 15.455 4.13963 16.0287 4.26281 16.4573C4.39122 16.9041 4.43168 17.1207 4.43567 17.2226C4.4446 17.4508 4.44139 17.5463 4.43035 17.625C4.41932 17.7037 4.39615 17.7964 4.32482 18.0133C4.23804 18.2773 4.01606 18.6238 3.38164 19.5755Z" fill="#274586"/>
</svg>
